<svg width="156" height="106" viewBox="0 0 156 106" fill="none" xmlns="http://www.w3.org/2000/svg">
<path d="M32.5 20.424C66.8112 -0.586683 86.8182 -1.02816 124 20.424" stroke="black" stroke-width="8" stroke-linecap="round"/>
<path d="M6 12.5C6 15.7298 6.85155 19.2789 8.84933 23M19.5 36.5C16.5 40.5001 10 56.5 11.5 70C13 83.5 26 92 35.5 92C45 92 52 89.5 59.5 80.5M19.5 36.5C44.7206 47.1962 55.4105 53.9772 66 68M19.5 36.5C13.5754 31.9219 11.1814 27.3437 8.84933 23M66 68C73.8105 68 78.6896 68 86.5 68M66 68C62.8758 72.491 59.5 80.5 59.5 80.5M86.5 68L95 80.6456M86.5 68C95.5966 56.7973 107.116 49.7993 135 36.5M135 36.5C141 46.5 145.5 57.5 144 70C142.5 82.5001 129.5 92 117 92C104.5 92 97.5 84.6457 95 80.6456M135 36.5C137.657 33.7098 139.997 31.1314 142 28.7368C143.706 26.697 145.168 24.7906 146.374 23M150.5 12.5C150.5 15.5475 149.081 18.982 146.374 23M59.5 80.5C59.5 80.5 72 101.5 78 101.5C84 101.5 95 80.6456 95 80.6456M146.374 23L152 20M8.84933 23L4 20" stroke="black" stroke-width="8" stroke-linecap="round"/>
<ellipse cx="38" cy="60" rx="6" ry="11" fill="black"/>
<ellipse cx="117" cy="60" rx="6" ry="11" fill="black"/>
</svg>